<?xml version="1.0" encoding="UTF-8"?>
<svg version="1.1" xmlns="http://www.w3.org/2000/svg" width="512" height="512">
<path d="M0 0 C1.3365287 -0.01469078 1.3365287 -0.01469078 2.70005798 -0.02967834 C22.60828118 -0.20334589 41.90456474 -0.03544421 61.4453125 4.23828125 C62.92451172 4.55974121 62.92451172 4.55974121 64.43359375 4.88769531 C113.29447026 15.88619536 161.14969796 42.34158506 193.4453125 81.23828125 C194.22777344 82.1096875 195.01023437 82.98109375 195.81640625 83.87890625 C224.76774894 116.38002403 243.92344787 159.36421165 250.4453125 202.23828125 C250.62046387 203.358396 250.79561523 204.47851074 250.97607422 205.63256836 C252.5800588 216.94273439 252.84456538 228.13833039 252.8203125 239.55078125 C252.81949677 240.99969254 252.81949677 240.99969254 252.81866455 242.47787476 C252.67723335 297.28359543 233.91294268 351.1405859 198.4453125 393.23828125 C198.00074707 393.77163086 197.55618164 394.30498047 197.09814453 394.85449219 C188.22536736 405.48522354 179.07675597 415.36819695 168.21484375 424.02734375 C166.40012249 425.47604929 164.60476024 426.94942113 162.83203125 428.44921875 C121.52207816 463.33317913 66.69507132 480.72710773 13.1328125 480.61328125 C12.16687164 480.61273743 11.20093079 480.6121936 10.20571899 480.6116333 C-5.69146444 480.57060916 -20.9742443 479.64585488 -36.5546875 476.23828125 C-37.54082031 476.02397461 -38.52695313 475.80966797 -39.54296875 475.58886719 C-80.68601851 466.32763679 -118.66455293 447.01341561 -149.5546875 418.23828125 C-150.94613416 417.02489906 -152.34177389 415.81630322 -153.7421875 414.61328125 C-160.23579506 408.92488103 -165.82997583 402.84849748 -171.23828125 396.11328125 C-172.72964128 394.26228465 -174.24130496 392.42737276 -175.77734375 390.61328125 C-186.48593264 377.92162035 -194.84788293 363.9027082 -202.5546875 349.23828125 C-202.90241211 348.58762695 -203.25013672 347.93697266 -203.60839844 347.26660156 C-214.77726192 326.11658788 -221.86063665 301.78641992 -225.5546875 278.23828125 C-225.73725098 277.08271729 -225.91981445 275.92715332 -226.10791016 274.73657227 C-227.70824137 263.46656388 -227.95385383 252.29750635 -227.9296875 240.92578125 C-227.92914368 239.95984039 -227.92859985 238.99389954 -227.92803955 237.99868774 C-227.88701541 222.10150431 -226.96226113 206.81872445 -223.5546875 191.23828125 C-223.34038086 190.25214844 -223.12607422 189.26601562 -222.90527344 188.25 C-213.64404304 147.10695024 -194.32982186 109.12841582 -165.5546875 78.23828125 C-164.34130531 76.84683459 -163.13270947 75.45119486 -161.9296875 74.05078125 C-123.16385022 29.67058133 -58.73818865 0.53610464 0 0 Z M-88.9296875 78.48828125 C-89.55617187 79.0296875 -90.18265625 79.57109375 -90.828125 80.12890625 C-95.76925878 86.16558552 -95.97275115 92.06310802 -95.84765625 99.546875 C-95.84341141 100.51359634 -95.83916656 101.48031769 -95.83479309 102.47633362 C-95.81809272 105.54310774 -95.78045649 108.60920805 -95.7421875 111.67578125 C-95.7271295 113.76366234 -95.71344305 115.8515538 -95.70117188 117.93945312 C-95.66821749 123.0393194 -95.61649501 128.13868635 -95.5546875 133.23828125 C-94.46380074 133.24374969 -94.46380074 133.24374969 -93.35087585 133.24932861 C-86.45218845 133.28740593 -79.55388281 133.34447955 -72.6555357 133.42218399 C-69.11010238 133.46146948 -65.56491038 133.49374937 -62.01928711 133.50927734 C-57.93043375 133.52750641 -53.84247865 133.57753886 -49.75390625 133.62890625 C-48.49825363 133.63013489 -47.24260101 133.63136353 -45.94889832 133.63262939 C-28.67273936 133.91641655 -18.99845751 141.40664863 -7.30859375 153.32421875 C-6.5714061 154.06660797 -5.83421844 154.80899719 -5.07469177 155.57388306 C-2.75063598 157.91556741 -0.43347478 160.2639145 1.8828125 162.61328125 C4.22501871 164.98312199 6.56869594 167.35146166 8.91529846 169.71694946 C10.3682185 171.18211813 11.81845696 172.64995184 13.26573181 174.12069702 C13.91723709 174.77873322 14.56874237 175.43676941 15.23999023 176.11474609 C16.09861916 176.98575455 16.09861916 176.98575455 16.97459412 177.87435913 C19.46529772 180.18420021 21.19099572 180.36266009 24.48220825 180.35853577 C25.74845535 180.36059776 25.74845535 180.36059776 27.0402832 180.36270142 C28.43210815 180.3573085 28.43210815 180.3573085 29.85205078 180.35180664 C30.82769989 180.35195267 31.803349 180.35209869 32.80856323 180.35224915 C36.04427284 180.3515506 39.2799254 180.34376091 42.515625 180.3359375 C44.75479094 180.33407311 46.99395729 180.33264931 49.23312378 180.33164978 C55.13504151 180.32782623 61.03693474 180.31799732 66.93884277 180.3069458 C72.95792306 180.29672819 78.9770073 180.29215141 84.99609375 180.28710938 C96.81251078 180.27637492 108.62890961 180.25930043 120.4453125 180.23828125 C120.53812426 168.51158875 120.60913439 156.7849841 120.65256119 145.05799866 C120.67340729 139.61226396 120.7016708 134.16678115 120.74707031 128.72119141 C120.79063386 123.46272313 120.81447199 118.20449667 120.82482147 112.94586182 C120.83219396 110.94285274 120.84659072 108.93985641 120.86823273 106.93695068 C120.89740628 104.12434624 120.90126267 101.31273218 120.89941406 98.5 C120.92098572 97.2667675 120.92098572 97.2667675 120.94299316 96.00862122 C120.89527123 89.26789873 118.89290312 84.18978758 114.5859375 78.99609375 C113.96203125 78.45726563 113.338125 77.9184375 112.6953125 77.36328125 C111.77492188 76.53183594 111.77492188 76.53183594 110.8359375 75.68359375 C105.33711095 72.35913979 99.14951727 71.98767777 92.86219788 71.97758484 C92.14300735 71.97375929 91.42381683 71.96993374 90.68283266 71.96599227 C88.29637252 71.95575378 85.91015711 71.95963679 83.52368164 71.96362305 C81.80313395 71.95927153 80.08258819 71.95408691 78.36204529 71.94813538 C73.70501649 71.93478227 69.04806903 71.93416254 64.39102483 71.93669868 C60.49695577 71.93777078 56.60290301 71.93287896 52.70883745 71.92809325 C43.5195022 71.91701107 34.33020783 71.91655357 25.14086914 71.92260742 C15.67391481 71.92864842 6.20710906 71.91633003 -3.25981992 71.89503735 C-11.40104077 71.8774025 -19.54221439 71.87142292 -27.68345362 71.8746751 C-32.54006243 71.8764849 -37.39656522 71.87388185 -42.25315666 71.85996056 C-46.82098642 71.84735597 -51.38858502 71.84935116 -55.95641136 71.86237144 C-57.62808562 71.86473095 -59.29977629 71.86202506 -60.97143173 71.85374832 C-75.97988967 71.58693992 -75.97988967 71.58693992 -88.9296875 78.48828125 Z M-128.5546875 156.23828125 C-133.08102951 163.54573389 -134.70506593 169.55922219 -134.69512939 178.09292603 C-134.69810052 178.88966433 -134.70107164 179.68640263 -134.7041328 180.50728452 C-134.71281236 183.18015993 -134.71432743 185.85299052 -134.71582031 188.52587891 C-134.72044909 190.44125463 -134.72547384 192.35662944 -134.73086548 194.27200317 C-134.74398766 199.47888291 -134.75043435 204.68574976 -134.75487614 209.89264345 C-134.7578078 213.14712351 -134.76191284 216.40160005 -134.76638031 219.65607834 C-134.78005618 229.84251566 -134.7897218 240.02894494 -134.7935822 250.2153908 C-134.79806011 261.96630673 -134.81559529 273.71710618 -134.8445828 285.4679867 C-134.86621954 294.55519969 -134.87628759 303.64237996 -134.87762332 312.72961843 C-134.87867013 318.15473812 -134.88455128 323.57974833 -134.90244293 329.00484085 C-134.9189575 334.11185029 -134.92106265 339.21866836 -134.91230392 344.32569504 C-134.9115353 346.19529484 -134.91585309 348.06490506 -134.92576218 349.93447876 C-134.98702436 362.21813588 -135.04187869 373.29502046 -126.77734375 383.19140625 C-117.85769542 391.40563424 -107.36139166 392.39205108 -95.82072449 392.37199402 C-94.85808081 392.37425958 -93.89543714 392.37652513 -92.90362245 392.37885934 C-89.68728222 392.38517481 -86.4709844 392.38437155 -83.25463867 392.38354492 C-80.9447372 392.38653794 -78.63483623 392.38994079 -76.32493591 392.39372253 C-70.05628119 392.40255209 -63.78764013 392.40490021 -57.51897979 392.40553832 C-53.60097789 392.4062494 -49.68297945 392.40838481 -45.76497841 392.41103554 C-32.79733309 392.41980817 -19.82969745 392.42445568 -6.8620493 392.42370506 C-5.81453046 392.42364513 -5.81453046 392.42364513 -4.74584961 392.42358398 C-3.6970444 392.42352266 -3.6970444 392.42352266 -2.62705121 392.4234601 C8.70158328 392.42305375 20.03018451 392.4326219 31.35880939 392.44672235 C43.00498998 392.4611031 54.65115284 392.46780867 66.29734248 392.46712857 C72.83015379 392.46687379 79.36292746 392.4697141 85.89573097 392.48030663 C92.04102719 392.48999895 98.18624986 392.49005894 104.33154869 392.48278999 C106.58332298 392.48174558 108.83510188 392.48409851 111.08686829 392.49015045 C114.16813098 392.49789357 117.24914112 392.49321015 120.33039856 392.48551941 C121.2147591 392.49066297 122.09911965 392.49580654 123.010279 392.50110596 C133.23711656 392.44496111 142.35156571 390.82716054 150.4453125 384.23828125 C159.36510105 374.37869982 159.74544802 364.64813189 159.7199707 351.90283203 C159.724324 350.45976499 159.7295092 349.01670026 159.73545837 347.57363892 C159.74879365 343.67271289 159.74943314 339.77188409 159.74689507 335.87093973 C159.74582158 332.60575174 159.75071841 329.34058311 159.7555005 326.07539928 C159.76657688 318.36747136 159.7670437 310.65959218 159.76098633 302.95166016 C159.75494829 295.01955106 159.76725748 287.08761942 159.7885564 279.15554059 C159.8062123 272.32724258 159.81216746 265.49900085 159.80891865 258.67068088 C159.80711191 254.60042355 159.80968074 250.53029281 159.82363319 246.4600563 C159.83627199 242.63008605 159.83421076 238.80039102 159.82122231 234.97042465 C159.81887003 233.57169244 159.82154237 232.1729405 159.82984543 230.77423096 C159.89382998 219.14969345 158.94376856 208.84758674 150.4453125 200.23828125 C141.62691091 192.88961326 133.0481251 191.93859791 121.92382812 191.9987793 C120.7943425 191.99676514 119.66485687 191.99475098 118.50114441 191.99267578 C116.05945581 191.98914228 113.61775804 191.98988249 111.17607117 191.99445152 C107.30855814 192.00006239 103.441343 191.99085734 99.57385254 191.97724915 C88.58161025 191.94018996 77.58947067 191.92131842 66.59716797 191.93286133 C59.86396887 191.93975722 53.13125384 191.92043649 46.39811707 191.88697243 C43.8369413 191.87902657 41.27571952 191.88028424 38.71455383 191.89099693 C35.13150268 191.90534293 31.54977519 191.88903239 27.96679688 191.8659668 C26.91409103 191.87773453 25.86138519 191.88950226 24.77677917 191.90162659 C16.68306548 191.79964484 12.22781694 189.46569464 6.17041016 184.29722595 C5.57276855 183.6808577 4.97512695 183.06448944 4.359375 182.42944336 C3.66505371 181.72198471 2.97073242 181.01452606 2.25537109 180.28562927 C1.53430176 179.53652786 0.81323242 178.78742645 0.0703125 178.015625 C-1.50771582 176.40941022 -3.08584384 174.80329338 -4.6640625 173.19726562 C-7.11581779 170.68333169 -9.56409229 168.16609121 -12.00976562 165.64624023 C-14.39112981 163.19827615 -16.7847797 160.76282975 -19.1796875 158.328125 C-19.90075684 157.57699936 -20.62182617 156.82587372 -21.36474609 156.05198669 C-28.8735679 148.43517874 -35.66291031 145.14749638 -46.36767578 145.0612793 C-47.04470047 145.0547081 -47.72172516 145.0481369 -48.41926575 145.04136658 C-50.65451179 145.02169771 -52.88969071 145.00998278 -55.125 145 C-55.89216213 144.99592447 -56.65932426 144.99184895 -57.44973373 144.98764992 C-61.5136869 144.96681228 -65.57760658 144.95250298 -69.64160156 144.94311523 C-73.81760014 144.93208074 -77.99306149 144.89770904 -82.16887093 144.85794353 C-85.39817218 144.83166171 -88.62734791 144.82341302 -91.85674667 144.81983376 C-93.39478033 144.81499431 -94.93280939 144.8034566 -96.47073746 144.78479576 C-109.14835644 144.64058074 -119.92652156 146.09539284 -128.5546875 156.23828125 Z " fill="#B000FF" transform="translate(243.5546875,15.76171875)"/>
<path d="M0 0 C14.09595863 0.30403048 27.03360453 4.80809526 37.375 14.5625 C47.81342913 25.89947523 52.60664561 39.87654339 52.4375 55.25 C51.71292969 64.19008285 49.44541481 72.73812779 44.4375 80.25 C45.345 80.29125 46.2525 80.3325 47.1875 80.375 C58.08006384 81.98462988 67.75558302 89.30470859 74.40625 97.75 C82.00193337 108.82167406 84.11006685 120.26987451 83.9375 133.5 C83.96070313 135.30210937 83.96070313 135.30210937 83.984375 137.140625 C83.94633786 145.81309203 82.24134517 151.68077083 77.75 159 C71.96966387 164.62411083 65.25698073 167.35952216 57.27156067 167.39717102 C55.70516846 167.40790398 55.70516846 167.40790398 54.10713196 167.41885376 C52.96681015 167.42154266 51.82648834 167.42423157 50.65161133 167.42700195 C49.44628754 167.43357315 48.24096375 167.44014435 46.99911499 167.44691467 C43.00591787 167.4666427 39.01276089 167.47831373 35.01953125 167.48828125 C33.64158293 167.49233085 32.2636348 167.49644784 30.88568687 167.50063133 C24.4095763 167.51967383 17.93347705 167.53390582 11.45734388 167.5422433 C3.99764308 167.5520072 -3.46176031 167.57830818 -10.92135638 167.61874419 C-16.69732855 167.64897234 -22.4732158 167.66371856 -28.24926549 167.66702431 C-31.6942115 167.66936752 -35.13883948 167.67823156 -38.58370018 167.70348549 C-42.43244152 167.73124508 -46.28079625 167.72691461 -50.12963867 167.7199707 C-51.25983932 167.73278076 -52.39003998 167.74559082 -53.55448914 167.75878906 C-62.88989048 167.69754026 -70.10953411 165.32565899 -77.05859375 158.95703125 C-85.43594699 149.44819134 -84.20684755 136.08151429 -83.5625 124.25 C-82.14656237 110.37887943 -76.64749519 99.77471768 -66.5625 90.25 C-60.12826152 85.08042218 -52.64134367 81.08362519 -44.5625 79.25 C-45.160625 78.156875 -45.75875 77.06375 -46.375 75.9375 C-52.55496166 63.35764922 -53.49504355 49.64302279 -49.59765625 36.15625 C-44.61264961 22.16060873 -36.89346167 12.08411484 -23.5625 5.25 C-15.69671178 1.97838897 -8.44162959 0.59239506 0 0 Z M-25.88671875 22 C-34.02409197 29.43988409 -38.19864092 39.25373309 -39.4375 50.09375 C-39.8492555 60.4905763 -36.29763655 70.18414592 -29.89453125 78.38671875 C-21.68416397 87.04799865 -12.0483469 91.32698794 -0.1875 91.6875 C9.2350318 91.48903143 16.9115946 88.98402316 24.4375 83.25 C25.241875 82.65574219 26.04625 82.06148438 26.875 81.44921875 C34.22757354 75.13900701 38.84058528 65.52506599 39.75 55.96484375 C40.18764333 43.39627449 36.44279894 32.80608412 27.84765625 23.53515625 C12.20635002 9.07154838 -9.26327703 9.48352623 -25.88671875 22 Z M-44.3125 93 C-45.36824219 93.37898438 -45.36824219 93.37898438 -46.4453125 93.765625 C-52.82451599 96.13707611 -58.02923463 99.26761746 -62.6875 104.3125 C-63.32945312 104.98410156 -63.97140625 105.65570313 -64.6328125 106.34765625 C-70.19236798 114.70949779 -71.20436716 123.22046565 -71.0625 133.0625 C-71.07796875 134.15498047 -71.0934375 135.24746094 -71.109375 136.37304688 C-71.07889593 142.63268538 -70.7774019 146.50725058 -66.5625 151.25 C-62.47455198 155.07420944 -58.06634092 155.3728186 -52.64248657 155.38371277 C-51.67810165 155.38797775 -50.71371674 155.39224274 -49.72010803 155.39663696 C-48.6737468 155.39618378 -47.62738556 155.39573059 -46.54931641 155.39526367 C-45.43816971 155.39862228 -44.32702301 155.4019809 -43.1822052 155.40544128 C-39.50947959 155.41493926 -35.83679963 155.41689379 -32.1640625 155.41796875 C-29.60964947 155.42118201 -27.05523662 155.42454614 -24.50082397 155.42805481 C-19.14605203 155.43404311 -13.79129709 155.43593785 -8.43652344 155.43530273 C-2.25798093 155.43470217 3.92047421 155.44525224 10.09899461 155.4610464 C16.05503922 155.47572622 22.01105728 155.47929003 27.96712112 155.47869301 C30.49564597 155.47987263 33.02417148 155.48429339 35.55268478 155.49202538 C39.09037259 155.5018308 42.62783587 155.49894491 46.16552734 155.49291992 C47.72899651 155.50134918 47.72899651 155.50134918 49.3240509 155.50994873 C56.09927707 155.48065194 61.81987799 155.40226698 67.25 150.9375 C73.51780276 143.23705661 72.16839005 132.661845 71.4375 123.25 C69.65843687 112.6501927 65.0827256 104.39321861 56.375 98 C50.61929326 94.47326747 44.045665 91.65463411 37.4375 90.25 C33.86283155 91.18161198 31.31326602 92.93970003 28.375 95.125 C21.32408005 99.9394011 12.94290907 102.60808233 4.4375 103.25 C3.138125 103.353125 1.83875 103.45625 0.5 103.5625 C-12.64068816 103.38218181 -24.53362262 98.45544513 -34.5625 90.25 C-37.99909692 90.25 -41.12442774 91.81161464 -44.3125 93 Z " fill="#A600FF" transform="translate(209.5625,222.75)"/>
<path d="M0 0 C1.09465576 -0.00004028 2.18931152 -0.00008057 3.31713867 -0.00012207 C5.63042953 0.00523697 7.94371968 0.02283583 10.25683594 0.05175781 C13.7993936 0.09359521 17.34004959 0.09282812 20.8828125 0.0859375 C23.13022156 0.09643043 25.3776208 0.10936908 27.625 0.125 C29.21574341 0.12530212 29.21574341 0.12530212 30.83862305 0.12561035 C32.32036011 0.14947815 32.32036011 0.14947815 33.83203125 0.17382812 C34.69932861 0.18224731 35.56662598 0.1906665 36.46020508 0.19934082 C39.34983399 0.68384477 40.72990403 1.54905427 42.8125 3.59375 C43.375 7.09375 43.375 7.09375 42.8125 10.59375 C38.29289061 14.71588093 32.71696361 14.02671826 26.96484375 13.9921875 C25.39157066 13.99649277 25.39157066 13.99649277 23.78651428 14.00088501 C21.57340962 14.00292312 19.36028683 13.99741104 17.1472168 13.98486328 C13.75854296 13.96879052 10.37105895 13.98472946 6.98242188 14.00390625 C4.83072653 14.00192409 2.67903193 13.99808098 0.52734375 13.9921875 C-0.48626724 13.99826019 -1.49987823 14.00433289 -2.54420471 14.0105896 C-3.96103798 13.99640488 -3.96103798 13.99640488 -5.40649414 13.98193359 C-6.23524551 13.97954681 -7.06399689 13.97716003 -7.91786194 13.97470093 C-10.73168408 13.50241058 -12.10376703 12.51265561 -14.1875 10.59375 C-15.1875 8.21875 -15.1875 8.21875 -15.1875 5.59375 C-11.89293137 -1.05969565 -6.5639189 -0.1014782 0 0 Z " fill="#C200FF" transform="translate(333.1875,332.40625)"/>
<path d="M0 0 C1.51683632 -0.01441132 1.51683632 -0.01441132 3.0643158 -0.02911377 C4.70805931 -0.03548859 4.70805931 -0.03548859 6.38500977 -0.04199219 C7.50706314 -0.04769226 8.62911652 -0.05339233 9.78517151 -0.05926514 C12.16162164 -0.06872307 14.53808494 -0.07525226 16.91455078 -0.07910156 C20.55792978 -0.08881789 24.20074739 -0.11983885 27.84399414 -0.15136719 C30.14932932 -0.15789592 32.45466855 -0.1631469 34.76000977 -0.16699219 C35.85381454 -0.17933899 36.94761932 -0.19168579 38.0745697 -0.20440674 C39.08894608 -0.20140564 40.10332245 -0.19840454 41.1484375 -0.1953125 C42.04175278 -0.19895813 42.93506805 -0.20260376 43.85545349 -0.20635986 C46.13891602 0.16113281 46.13891602 0.16113281 47.93128967 1.46075439 C49.91967084 4.26046181 49.43969616 6.85255121 49.13891602 10.16113281 C46.58926461 12.71078422 45.63367144 12.42695079 42.09423828 12.4675293 C41.04297256 12.48351669 39.99170685 12.49950409 38.90858459 12.51597595 C37.76900803 12.52133865 36.62943146 12.52670135 35.45532227 12.53222656 C33.70565407 12.54576927 33.70565407 12.54576927 31.92063904 12.55958557 C29.4500486 12.57411402 26.97941946 12.58298122 24.50878906 12.58666992 C20.72012873 12.59857402 16.93309205 12.64774444 13.14477539 12.69824219 C10.748299 12.70770477 8.35181256 12.71494059 5.95532227 12.71972656 C4.81776993 12.73925888 3.68021759 12.7587912 2.50819397 12.77891541 C1.45377609 12.77283768 0.39935822 12.76675995 -0.68701172 12.76049805 C-1.61585678 12.7655687 -2.54470184 12.77063934 -3.50169373 12.77586365 C-5.86108398 12.16113281 -5.86108398 12.16113281 -7.72743225 9.82679749 C-8.86108398 7.16113281 -8.86108398 7.16113281 -8.17358398 3.91113281 C-6.17541706 -0.27550264 -4.32867289 0.03311545 0 0 Z " fill="#C200FF" transform="translate(326.861083984375,355.8388671875)"/>
</svg>
